<svg width="16" height="15" viewBox="0 0 16 15" fill="none" xmlns="http://www.w3.org/2000/svg">
<path d="M7.82954 12.5296L4.03407 14.8161C3.8664 14.9228 3.6911 14.9685 3.50819 14.9533C3.32527 14.938 3.16522 14.8771 3.02804 14.7704C2.89085 14.6637 2.78415 14.5304 2.70794 14.3707C2.63172 14.2109 2.61648 14.0317 2.66221 13.8329L3.66824 9.51156L0.307183 6.60779C0.154754 6.4706 0.0596385 6.31421 0.0218362 6.13861C-0.0159662 5.96302 -0.00468651 5.79169 0.0556753 5.62462C0.116037 5.45756 0.207494 5.32038 0.330047 5.21307C0.4526 5.10576 0.620272 5.03716 0.833062 5.00729L5.26874 4.61859L6.98356 0.548744C7.05978 0.365829 7.17806 0.228643 7.33842 0.137186C7.49877 0.0457285 7.66248 0 7.82954 0C7.99661 0 8.16031 0.0457285 8.32067 0.137186C8.48102 0.228643 8.59931 0.365829 8.67552 0.548744L10.3903 4.61859L14.826 5.00729C15.0394 5.03777 15.2071 5.10637 15.329 5.21307C15.451 5.31977 15.5424 5.45695 15.6034 5.62462C15.6644 5.7923 15.676 5.96393 15.6382 6.13953C15.6004 6.31513 15.5049 6.47121 15.3519 6.60779L11.9909 9.51156L12.9969 13.8329C13.0426 14.0311 13.0274 14.2103 12.9512 14.3707C12.8749 14.531 12.7682 14.6643 12.6311 14.7704C12.4939 14.8764 12.3338 14.9374 12.1509 14.9533C11.968 14.9691 11.7927 14.9234 11.625 14.8161L7.82954 12.5296Z" fill="#FF3CAC"/>
</svg>
